<svg xmlns="http://www.w3.org/2000/svg" width="1200" height="750" viewBox="0 0 1200 750" role="img">
<defs>
  <linearGradient id="bg" x1="0" y1="0" x2="1" y2="1"><stop offset="0" stop-color="#0b0d1a"/><stop offset="1" stop-color="#151a30"/></linearGradient>
  <linearGradient id="gold" x1="0" y1="0" x2="1" y2="0"><stop offset="0" stop-color="#ffd34d"/><stop offset="1" stop-color="#d99a00"/></linearGradient>
  <filter id="sh" x="-20%" y="-20%" width="140%" height="140%"><feDropShadow dx="0" dy="12" stdDeviation="16" flood-opacity="0.35"/></filter>
</defs>
<rect width="1200" height="750" rx="20" fill="url(#bg)"/>
<rect x="0" y="0" width="1200" height="48" rx="20" fill="#101322"/><rect x="0" y="24" width="1200" height="24" fill="#101322"/>
<circle cx="28" cy="24" r="7" fill="#ff5f56"/><circle cx="50" cy="24" r="7" fill="#ffbd2e"/><circle cx="72" cy="24" r="7" fill="#27c93f"/>
<text x="600" y="30" text-anchor="middle" font-family="Segoe UI,system-ui,sans-serif" font-size="13" font-weight="700" letter-spacing="0.08em" fill="#a7b0c8">GMARK - Billing and GST</text>
<text x="1080" y="30" text-anchor="end" font-family="Segoe UI,system-ui,sans-serif" font-size="11" fill="#f5b301" font-weight="700">GMARK</text>
<rect x="0" y="48" width="200" height="702" fill="#0f1326"/>
<rect x="16" y="68" width="168" height="28" rx="8" fill="rgba(245,179,1,0.18)"/><text x="24" y="86" font-family="Segoe UI,sans-serif" font-size="11" font-weight="700" fill="#ffd34d">Command Center</text>
<g font-family="Segoe UI,sans-serif" font-size="11" fill="#6b7394"><text x="24" y="118">Restaurant Floor</text><text x="24" y="144">Kitchen Queue</text><text x="24" y="170">Rooms &amp; Stays</text><text x="24" y="196">Billing &amp; GST</text><text x="24" y="222">Inventory</text><text x="24" y="248">Finance</text></g>
<rect x="16" y="680" width="168" height="44" rx="10" fill="#1a2038"/><text x="24" y="698" font-family="Segoe UI,sans-serif" font-size="10" fill="#a7b0c8">Grand Maratha House</text><text x="24" y="712" font-family="Segoe UI,sans-serif" font-size="9" fill="#6b7394">Pune - 42 rooms</text>
<g transform="translate(220,64)">
<rect x="0" y="0" width="960" height="670" rx="16" fill="#151a30"/>
<text x="24" y="36" font-family="Segoe UI,sans-serif" font-size="18" font-weight="800" fill="#eef1fa">Billing and GST</text><text x="24" y="54" font-family="Segoe UI,sans-serif" font-size="11" fill="#a7b0c8">CGST+SGST split invoices - F and B 5%, rooms 12-18% - CA-ready register</text>
<g transform="translate(24,72)">
  <rect x="0" y="0" width="560" height="380" rx="12" fill="#fff"/><text x="20" y="28" font-family="Segoe UI,sans-serif" font-size="11" font-weight="800" fill="#0b0d1a">TAX INVOICE</text><text x="20" y="42" font-family="Segoe UI,sans-serif" font-size="9" fill="#6b7394">Grand Maratha House - Pune - GSTIN 27ABCDE1234F1Z5</text><text x="420" y="28" font-family="Segoe UI,sans-serif" font-size="9" fill="#6b7394">Bill # GM_2026_000042</text>
  <text x="20" y="70" font-family="Segoe UI,sans-serif" font-size="9" letter-spacing="0.06em" fill="#6b7394">ITEM                QTY    RATE      AMOUNT</text>
  <text x="20" y="90" font-family="Segoe UI,sans-serif" font-size="10" fill="#0b0d1a">Paneer Tikka</text><text x="200" y="90" font-family="Segoe UI,sans-serif" font-size="10" fill="#0b0d1a">2</text><text x="280" y="90" font-family="Segoe UI,sans-serif" font-size="10" fill="#0b0d1a">Rs 280</text><text x="420" y="90" font-family="Segoe UI,sans-serif" font-size="10" fill="#0b0d1a">Rs 560</text>
  <text x="20" y="108" font-family="Segoe UI,sans-serif" font-size="10" fill="#0b0d1a">Butter Naan</text><text x="200" y="108" font-family="Segoe UI,sans-serif" font-size="10" fill="#0b0d1a">4</text><text x="280" y="108" font-family="Segoe UI,sans-serif" font-size="10" fill="#0b0d1a">Rs 50</text><text x="420" y="108" font-family="Segoe UI,sans-serif" font-size="10" fill="#0b0d1a">Rs 200</text>
  <text x="20" y="224" font-family="Segoe UI,sans-serif" font-size="12" font-weight="800" fill="#0b0d1a">Total</text><text x="400" y="224" font-family="Segoe UI,sans-serif" font-size="12" font-weight="800" fill="#0b0d1a">Rs 1,050</text>
</g>
<g transform="translate(600,72)">
  <rect x="0" y="0" width="336" height="380" rx="12" fill="#1a2038"/><text x="16" y="24" font-family="Segoe UI,sans-serif" font-size="11" font-weight="700" fill="#eef1fa">Sales register</text>
  <text x="16" y="80" font-family="Segoe UI,sans-serif" font-size="10" fill="#eef1fa">GM_000042  Rs 1,050   Rs 50</text>
  <text x="16" y="98" font-family="Segoe UI,sans-serif" font-size="10" fill="#eef1fa">GM_000041  Rs 5,984   Rs 864</text>
  <text x="16" y="168" font-family="Segoe UI,sans-serif" font-size="10" fill="#a7b0c8">Day total</text><text x="220" y="168" font-family="Segoe UI,sans-serif" font-size="11" font-weight="800" fill="#ffd34d">Rs 41,280</text>
</g></g>
</svg>